<?xml version="1.0" standalone="no"?>
<!DOCTYPE svg PUBLIC "-//W3C//DTD SVG 20010904//EN"
 "http://www.w3.org/TR/2001/REC-SVG-20010904/DTD/svg10.dtd">
<svg version="1.0" xmlns="http://www.w3.org/2000/svg"
 width="286.000000pt" height="300.000000pt" viewBox="0 0 286.000000 300.000000"
 preserveAspectRatio="xMidYMid meet">

<g transform="translate(0.000000,300.000000) scale(0.100000,-0.100000)"
fill="#5658DD" stroke="none">
<path d="M1356 2901 c-95 -164 -205 -290 -352 -401 -203 -154 -441 -242 -715
-266 l-77 -6 -50 -107 c-99 -208 -135 -376 -136 -621 0 -290 69 -549 208 -775
l43 -70 69 3 c174 9 444 -53 619 -141 184 -92 356 -239 480 -412 l69 -95 70 0
c181 0 454 77 641 180 235 130 467 361 585 583 l38 72 -59 104 c-62 111 -127
293 -150 421 -8 42 -14 144 -14 230 0 218 33 361 131 571 l36 77 -46 68 c-281
420 -746 664 -1261 664 l-83 0 -46 -79z m434 -127 c172 -37 360 -124 506 -233
84 -62 218 -197 267 -268 l27 -40 -29 -70 c-84 -197 -115 -378 -108 -622 7
-242 49 -415 148 -613 22 -43 39 -84 39 -91 0 -20 -97 -158 -168 -236 -172
-193 -492 -365 -744 -401 -40 -6 -83 -13 -94 -15 -18 -4 -35 12 -91 83 -261
329 -654 535 -1070 559 l-101 6 -50 106 c-87 185 -122 343 -122 556 0 185 34
357 102 516 l20 47 81 11 c404 58 763 268 1000 586 32 43 68 95 79 115 l21 35
106 -7 c58 -4 140 -15 181 -24z"/>
<path d="M1360 2054 c-96 -25 -180 -74 -256 -149 -85 -84 -127 -156 -154 -261
-50 -195 -6 -383 125 -534 173 -200 445 -253 694 -135 95 46 212 160 259 255
83 168 80 373 -10 543 -67 127 -218 244 -364 282 -73 19 -221 19 -294 -1z
m293 -184 c107 -40 192 -126 238 -241 17 -45 20 -70 17 -149 -3 -82 -7 -104
-35 -162 -143 -302 -581 -305 -728 -4 -56 115 -56 235 0 352 53 111 142 185
264 220 62 18 172 11 244 -16z"/>
</g>
</svg>
