<svg width="670" height="418" viewBox="0 0 670 418" fill="none" xmlns="http://www.w3.org/2000/svg">
<path d="M101.899 2.01431V26.186H69.6782H67.6644V28.2004V124.887H38.2625V28.2004V26.186H36.2487H4.0275V2.01431H101.899ZM103.913 0H2.01367V28.2004H36.2487V126.902H69.6782V28.2004H103.913V0Z" fill="white"/>
<path d="M224.542 2.01431V124.887H195.14V76.9467V74.9324H193.126H151.037H149.023V76.9467V124.887H119.621V2.01431H149.023V48.7463V50.7606H151.037H193.327H195.341V48.7463V2.01431H224.542ZM226.555 0H193.126V48.7463H151.037V0H117.607V126.902H151.037V76.9467H193.327V126.902H226.757V0H226.555Z" fill="white"/>
<path d="M330.67 2.01431V26.186H278.512H276.498V28.2004V49.9549V51.9692H278.512H319.795V74.5295H278.512H276.498V76.5438V98.7013V100.716H278.512H332.683V124.887H247.096V2.01431H330.67ZM332.683 0H245.082V126.902H334.697V98.7013H278.512V76.5438H321.809V49.9549H278.512V28.2004H332.683V0Z" fill="white"/>
<path d="M32.4224 230.84C33.2279 240.509 40.8805 247.559 54.5745 247.559C64.6436 247.559 72.2962 243.53 72.2962 235.473C72.2962 227.617 64.6436 226.006 42.4915 221.574C20.5408 217.143 3.02053 210.294 3.02053 183.907C3.02053 161.347 23.9643 144.225 52.5607 144.225C81.5598 144.225 103.108 161.548 103.108 184.914H70.4837C69.6782 176.454 63.6367 170.008 52.3593 170.008C43.2971 170.008 36.45 173.634 36.45 181.49C36.45 189.144 43.4984 190.755 65.6505 194.986C88.004 199.417 106.128 205.661 105.927 231.847C105.726 255.616 83.5736 273.342 54.1717 273.342C23.1588 273.342 0.201172 254.811 0.201172 230.437L32.4224 230.84Z" fill="white"/>
<path d="M151.238 145.031V218.553C151.238 235.473 157.078 244.739 171.981 244.739C187.084 244.739 192.723 235.272 192.723 218.553V145.031H226.152V216.74C226.152 252.796 207.424 272.939 171.981 272.939C136.537 272.939 117.809 252.796 117.809 216.74V145.031H151.238Z" fill="white"/>
<path d="M298.448 145.031C327.246 145.031 346.378 162.152 346.378 188.943C346.378 215.733 327.246 232.854 298.448 232.854H278.512V271.932H245.082V145.031H298.448ZM278.512 205.661H295.428C305.9 205.661 312.747 199.216 312.747 188.943C312.747 178.67 306.101 172.224 295.428 172.224H278.512V205.661Z" fill="white"/>
<path d="M444.451 145.031V173.231H390.279V194.985H433.576V221.574H390.279V243.732H446.465V271.932H356.85V145.031H444.451Z" fill="white"/>
<path d="M515.338 145.031C544.538 145.031 564.274 162.152 564.274 188.943C564.274 204.453 556.822 217.143 545.344 224.596L568.301 271.932H531.65L512.921 232.854H494.998V271.932H461.568V145.031H515.338ZM495.199 205.661H512.518C523.393 205.661 530.038 199.216 530.038 188.943C530.038 178.67 523.393 172.224 512.518 172.224H495.199V205.661Z" fill="white"/>
<path d="M5.03516 290.061H38.4647V388.762H84.7827V416.962H5.03516V290.061Z" fill="white"/>
<path d="M180.842 290.061V318.261H126.67V340.016H169.967V366.605H126.67V388.762H182.855V416.962H93.2402V290.061H180.842Z" fill="white"/>
<path d="M232.798 290.061H273.075L317.983 416.962H282.137L274.082 392.791H229.778L221.924 416.962H187.487L232.798 290.061ZM265.422 366.605L251.93 325.513L238.437 366.605H265.422Z" fill="white"/>
<path d="M379.203 289.054C411.223 289.054 433.173 309.197 435.791 337.397H402.966C400.348 325.311 391.89 316.65 378.397 316.65C360.071 316.65 349.197 331.959 349.197 353.713C349.197 375.468 359.266 390.776 378.8 390.776C388.668 390.776 401.758 386.546 405.785 371.439V371.238H377.793V345.857H436.597V416.962H414.445L410.82 403.467C403.772 412.128 392.091 417.97 375.981 417.97C339.329 417.97 315.365 392.589 315.365 353.512C315.163 314.434 339.329 289.054 379.203 289.054Z" fill="white"/>
<path d="M486.541 290.061V363.583C486.541 380.503 492.381 389.769 507.283 389.769C522.186 389.769 528.026 380.302 528.026 363.583V290.061H561.455V361.77C561.455 397.826 542.727 417.97 507.283 417.97C471.84 417.97 453.111 397.826 453.111 361.77V290.061H486.541Z" fill="white"/>
<path d="M667.985 290.061V318.261H613.813V340.016H657.111V366.605H613.813V388.762H669.999V416.962H580.384V290.061H667.985Z" fill="white"/>
</svg>
