<?xml version="1.0" standalone="no"?>
<!DOCTYPE svg PUBLIC "-//W3C//DTD SVG 20010904//EN"
 "http://www.w3.org/TR/2001/REC-SVG-20010904/DTD/svg10.dtd">
<svg version="1.0" xmlns="http://www.w3.org/2000/svg"
 width="456.000000pt" height="162.000000pt" viewBox="0 0 456.000000 162.000000"
 preserveAspectRatio="xMidYMid meet">

<g transform="translate(0.000000,162.000000) scale(0.100000,-0.100000)"
fill="#5658DD" stroke="none">
<path d="M676 1553 c-110 -180 -292 -296 -503 -318 l-61 -7 -25 -56 c-59 -134
-78 -270 -58 -412 14 -96 55 -217 94 -278 l27 -42 68 0 c186 -1 373 -95 492
-250 l55 -71 60 5 c231 22 440 152 566 350 l37 58 -43 92 c-55 116 -69 187
-63 323 4 95 9 119 41 198 l36 90 -36 53 c-49 71 -163 175 -237 217 -101 56
-208 87 -321 92 l-100 5 -29 -49z m219 -58 c108 -23 225 -85 311 -167 40 -38
76 -78 79 -88 3 -10 -4 -41 -15 -70 -67 -170 -59 -391 20 -566 l30 -67 -31
-48 c-65 -102 -196 -198 -331 -243 -124 -42 -136 -39 -221 51 -131 139 -287
217 -459 230 l-81 6 -23 51 c-64 139 -78 328 -36 463 26 84 42 103 86 103 75
0 247 71 342 141 54 40 158 155 177 196 12 28 48 30 152 8z"/>
<path d="M674 1139 c-53 -15 -127 -72 -156 -119 -135 -219 44 -488 293 -442
114 21 192 90 225 201 42 138 -18 276 -148 340 -49 25 -73 31 -122 30 -34 0
-75 -5 -92 -10z m150 -91 c55 -17 109 -73 125 -131 47 -166 -128 -310 -280
-232 -40 21 -87 80 -99 127 -25 89 19 186 103 227 48 24 92 26 151 9z"/>
<path d="M3260 1185 c0 -58 -2 -105 -4 -105 -2 0 -17 7 -32 15 -76 39 -182 1
-224 -80 -21 -41 -25 -63 -24 -130 0 -125 43 -190 133 -202 50 -7 78 0 124 31
l37 25 0 -24 c0 -22 4 -25 35 -25 l35 0 0 300 0 300 -40 0 -40 0 0 -105z m-26
-166 c26 -21 27 -23 24 -122 l-3 -101 -34 -23 c-58 -39 -118 -28 -146 27 -19
38 -20 142 0 180 32 61 107 80 159 39z"/>
<path d="M2734 1173 c-9 -68 -9 -68 -42 -71 -29 -3 -33 -6 -30 -30 2 -21 9
-28 31 -30 l27 -3 0 -133 c0 -73 5 -147 11 -165 20 -57 96 -77 165 -45 37 18
41 29 19 58 -13 17 -18 18 -41 7 -34 -15 -60 -6 -68 22 -3 12 -6 75 -6 140 l0
117 60 0 60 0 0 30 0 30 -60 0 -60 0 0 70 0 70 -29 0 c-28 0 -29 -2 -37 -67z"/>
<path d="M1608 1094 c-15 -8 -33 -24 -40 -37 -12 -22 -12 -22 -18 8 -4 26 -10
30 -43 33 l-37 3 0 -205 0 -206 45 0 45 0 0 136 0 136 35 35 c33 33 38 35 79
29 35 -6 45 -4 50 9 11 30 6 63 -10 69 -27 10 -78 6 -106 -10z"/>
<path d="M1890 1095 c-54 -25 -89 -64 -105 -119 -51 -172 49 -310 213 -293
115 12 167 78 167 212 0 97 -20 145 -76 182 -49 32 -147 41 -199 18z m139 -69
c70 -37 79 -192 14 -252 -38 -36 -102 -33 -145 5 -32 29 -33 31 -33 116 0 85
1 87 33 116 37 33 85 38 131 15z"/>
<path d="M2346 1100 c-108 -33 -161 -197 -101 -316 30 -60 76 -93 143 -101
136 -16 232 72 232 212 0 155 -126 249 -274 205z m146 -89 c32 -29 33 -31 33
-116 0 -85 -1 -87 -33 -116 -37 -33 -85 -38 -131 -14 -45 23 -68 103 -52 176
21 94 116 130 183 70z"/>
<path d="M3540 1095 c-55 -25 -89 -65 -106 -124 -25 -86 -2 -194 53 -243 68
-62 204 -63 279 -2 l29 23 -21 21 -21 22 -41 -21 c-49 -25 -119 -27 -150 -5
-24 17 -45 54 -56 97 l-6 27 146 0 146 0 -4 60 c-5 64 -23 98 -71 134 -36 26
-129 32 -177 11z m147 -78 c12 -12 25 -34 28 -49 l7 -28 -106 0 c-67 0 -106 4
-106 10 0 6 7 25 16 41 30 59 115 73 161 26z"/>
<path d="M4334 1096 c-47 -21 -74 -61 -74 -113 0 -57 26 -83 112 -112 36 -12
74 -31 84 -42 17 -19 17 -23 3 -47 -23 -42 -70 -50 -129 -22 -41 19 -52 21
-65 10 -48 -40 16 -85 122 -85 83 0 116 18 147 79 16 32 17 44 7 77 -14 46
-35 62 -118 90 -74 24 -100 52 -79 83 20 31 61 37 118 18 48 -15 51 -15 64 3
11 15 11 21 1 33 -32 40 -133 54 -193 28z"/>
<path d="M3820 1093 c-1 -17 154 -388 165 -398 6 -5 15 -36 18 -67 6 -52 5
-57 -14 -63 -13 -4 -27 -1 -38 9 -21 19 -45 22 -35 4 6 -10 5 -10 -7 -1 -23
18 -89 21 -89 3 0 -6 10 -8 24 -4 13 3 27 1 30 -4 10 -16 -45 -24 -75 -12 -20
9 -33 9 -46 1 -17 -10 -17 -10 0 -11 11 0 32 -8 47 -17 24 -14 34 -15 55 -5
32 15 68 17 45 2 -26 -16 -5 -20 55 -10 64 10 86 2 60 -24 -19 -18 -38 -20
-65 -6 -23 12 -175 19 -192 8 -9 -5 -6 -8 10 -8 27 0 28 -12 5 -36 -17 -17
-17 -17 5 -11 34 8 56 -2 41 -19 -23 -28 36 -15 68 15 22 20 39 28 53 24 24
-6 24 -7 4 -28 -28 -28 -6 -29 27 -1 17 15 33 25 35 23 9 -8 -8 -36 -30 -50
-29 -19 -52 -22 -98 -13 -38 8 -82 0 -74 -13 3 -4 20 -6 38 -4 20 3 28 1 21
-4 -16 -11 -35 -63 -23 -63 5 0 11 9 15 19 7 23 35 36 35 17 0 -7 -7 -19 -15
-26 -13 -11 -13 -15 -3 -21 21 -14 27 -10 36 23 10 40 32 50 28 13 -2 -16 -23
-48 -49 -76 -52 -55 -57 -65 -26 -48 12 6 19 7 15 1 -9 -15 5 -73 16 -66 5 3
7 13 4 21 -10 24 5 36 19 16 21 -28 27 -10 9 26 -16 31 -15 34 3 59 32 42 50
40 24 -3 -12 -22 -19 -45 -15 -54 5 -14 7 -13 14 4 7 15 9 11 9 -21 1 -22 -6
-49 -14 -60 -8 -10 -14 -30 -15 -44 0 -22 3 -21 25 15 23 38 24 39 25 13 0
-15 -4 -30 -10 -33 -5 -3 -10 -13 -10 -21 0 -8 4 -13 9 -10 4 3 13 -6 19 -19
7 -14 16 -25 22 -25 7 0 7 6 0 21 -6 11 -10 30 -8 42 3 20 6 19 26 -13 12 -19
24 -39 26 -45 2 -5 7 -7 11 -3 4 4 2 14 -4 22 -10 12 -8 14 11 9 21 -5 21 -3
-7 22 -18 16 -23 24 -12 21 29 -9 19 12 -13 29 -32 16 -51 50 -49 88 0 21 1
21 9 2 5 -11 11 -32 14 -47 4 -16 11 -28 17 -28 6 0 8 9 4 20 -8 25 0 25 36
-1 39 -27 37 -8 -2 26 -32 26 -32 26 -5 19 38 -9 32 3 -13 25 -21 11 -41 27
-45 36 -9 24 -7 75 2 75 19 0 31 -25 25 -54 -5 -30 -5 -30 10 -11 17 22 18 22
35 -15 12 -25 12 -25 9 7 -3 28 -1 31 15 22 10 -5 24 -19 31 -29 6 -11 18 -20
25 -20 10 0 9 9 -7 35 l-20 35 24 6 c14 3 32 3 41 0 10 -4 14 -1 12 6 -7 19
-37 22 -80 7 -31 -10 -43 -10 -66 1 l-27 13 25 7 25 7 -27 13 c-32 15 -34 25
-13 71 l16 34 -6 -33 c-4 -20 -3 -32 4 -32 6 0 11 -7 11 -15 0 -27 18 -16 25
14 8 37 30 31 39 -9 3 -16 14 -34 26 -40 20 -11 30 3 10 15 -5 3 -10 10 -10
16 0 13 54 11 69 -3 10 -11 12 -9 9 7 -2 15 -12 21 -38 23 -40 4 -67 22 -32
22 12 0 22 5 22 10 0 6 -12 10 -27 10 -22 0 -25 2 -13 10 20 13 67 13 75 0 3
-5 16 -10 28 -10 19 0 18 3 -11 22 -17 13 -30 29 -27 36 6 17 -11 15 -40 -4
-19 -12 -25 -13 -25 -3 0 8 -9 4 -23 -9 -39 -37 -55 -28 -67 39 -7 35 -5 37
11 29 10 -6 19 -20 21 -32 2 -12 8 -23 15 -25 7 -3 9 4 5 19 -5 21 -4 22 11 9
15 -11 17 -11 17 1 0 8 -6 20 -12 27 -28 29 63 2 99 -29 39 -35 57 -34 24 1
-31 34 -27 52 9 47 17 -3 30 -1 30 4 0 16 -44 25 -75 17 -43 -13 -53 -11 -31
6 20 15 20 15 0 15 -10 0 -28 -7 -38 -15 -41 -31 -116 -4 -116 40 0 8 9 23 20
32 11 10 20 23 20 30 0 7 34 95 75 197 41 102 75 187 75 191 0 3 -19 5 -41 3
l-42 -3 -56 -142 c-30 -79 -58 -143 -61 -143 -3 0 -30 64 -61 143 l-55 142
-42 3 c-23 2 -42 0 -42 -5z m48 -629 c-8 -9 -26 -14 -39 -12 l-24 5 25 11 c14
6 32 11 40 11 12 1 12 -2 -2 -15z m112 -103 c-5 -11 -15 -23 -22 -27 -7 -5 -8
-2 -3 7 21 37 44 55 25 20z"/>
</g>
</svg>
