<?xml version="1.0" encoding="iso-8859-1"?>
<!-- Generator: Adobe Illustrator 19.0.0, SVG Export Plug-In . SVG Version: 6.00 Build 0)  -->
<svg version="1.1" id="Layer_1" xmlns="http://www.w3.org/2000/svg" xmlns:xlink="http://www.w3.org/1999/xlink" x="0px" y="0px"
	 viewBox="0 0 512 512" style="enable-background:new 0 0 512 512;" xml:space="preserve">
<rect x="89.58" y="31.232" style="fill:#E6E6E6;" width="332.841" height="470.571"/>
<rect x="202.424" y="10.199" style="fill:#13B7DC;" width="107.163" height="44.316"/>
<path style="fill:#FFAE3E;" d="M379.846,247.89c0-68.399-55.448-123.846-123.846-123.846S132.154,179.492,132.154,247.89
	l97.324,86.295c-2.327,4.279-3.649,9.182-3.649,14.395c0,16.663,13.509,30.172,30.172,30.172s30.172-13.509,30.172-30.172
	c0-5.213-1.323-10.117-3.649-14.395L379.846,247.89z"/>
<path style="fill:#13B7DC;" d="M237.897,297.746l-65.638-57.909L256,165.894l83.742,73.943l-65.638,57.909
	C260.309,297.746,251.691,297.746,237.897,297.746z"/>
<path d="M422.42,21.033H319.779V10.199C319.779,4.566,315.211,0,309.579,0H202.421c-5.632,0-10.199,4.566-10.199,10.199v10.834
	H89.58c-5.632,0-10.199,4.566-10.199,10.199v470.569c0,5.633,4.567,10.199,10.199,10.199H422.42c5.632,0,10.199-4.566,10.199-10.199
	V31.232C432.62,25.599,428.052,21.033,422.42,21.033z M212.62,20.398h86.761v23.914H212.62L212.62,20.398L212.62,20.398z
	 M412.221,491.602H99.779V41.431h92.443v13.08c0,5.633,4.567,10.199,10.199,10.199h107.159c5.632,0,10.199-4.566,10.199-10.199
	v-13.08h92.443V491.602z"/>
<path d="M256,113.845c-73.914,0-134.046,60.132-134.046,134.045c0,2.918,1.25,5.695,3.432,7.631l91.927,81.51
	c-1.112,3.734-1.685,7.631-1.685,11.549c0,22.261,18.111,40.372,40.372,40.372c22.261,0,40.371-18.111,40.371-40.372
	c0-3.918-0.574-7.816-1.685-11.549l91.927-81.51c2.183-1.936,3.432-4.714,3.432-7.631C390.046,173.977,329.914,113.845,256,113.845z
	 M275.756,326.554c-3.551,3.15-4.461,8.333-2.193,12.503c1.599,2.941,2.41,6.146,2.41,9.523c0,11.013-8.96,19.973-19.973,19.973
	c-11.013,0-19.973-8.96-19.973-19.973c0-3.378,0.811-6.582,2.41-9.523c2.268-4.17,1.359-9.354-2.193-12.503l-93.803-83.173
	c2.376-60.582,52.405-109.138,113.559-109.138s111.182,48.555,113.559,109.138L275.756,326.554z"/>
<path d="M249.249,158.249l-83.741,73.943c-2.193,1.937-3.449,4.721-3.448,7.647c0.001,2.926,1.258,5.711,3.451,7.646l65.638,57.909
	c1.863,1.644,4.263,2.551,6.748,2.551h36.205c2.486,0,4.884-0.907,6.748-2.551l65.638-57.909c2.193-1.936,3.45-4.72,3.451-7.646
	c0.001-2.926-1.255-5.711-3.448-7.647l-83.741-73.943C258.895,154.843,253.105,154.843,249.249,158.249z M270.247,287.547h-28.495
	l-54.081-47.713L256,179.5l68.329,60.333L270.247,287.547z"/>
<path d="M218.238,419.404c-1.97-0.306-3.973-0.638-6.006-0.996c-5.544-0.976-10.837,2.727-11.815,8.275
	c-0.977,5.547,2.727,10.837,8.275,11.814c2.171,0.382,4.309,0.737,6.412,1.064c0.531,0.083,1.058,0.122,1.58,0.122
	c4.942,0,9.282-3.598,10.065-8.634C227.615,425.483,223.805,420.269,218.238,419.404z"/>
<path d="M338.494,312.967c-5.478,1.31-8.858,6.813-7.547,12.291c0.103,0.43,10.038,43.382-12.044,71.642
	c-12.919,16.534-34.812,25.064-65.07,25.352c-5.632,0.054-10.154,4.663-10.101,10.296c0.054,5.599,4.61,10.102,10.197,10.102
	c0.033,0,0.066,0,0.1,0c36.779-0.351,64.013-11.517,80.948-33.19c28.066-35.918,16.323-86.796,15.809-88.944
	C349.476,315.037,343.97,311.658,338.494,312.967z"/>
<path d="M192.318,407.136c-3.983-3.983-10.439-3.983-14.425,0l-5.984,5.984l-5.984-5.984c-3.984-3.983-10.44-3.983-14.425,0
	c-3.983,3.983-3.983,10.441,0,14.424l5.984,5.983l-5.984,5.983c-3.983,3.983-3.983,10.441,0,14.424
	c1.992,1.992,4.602,2.987,7.212,2.987s5.22-0.996,7.212-2.987l5.984-5.984l5.984,5.984c1.992,1.992,4.602,2.987,7.212,2.987
	c2.61,0,5.22-0.996,7.212-2.987c3.983-3.983,3.983-10.441,0-14.424l-5.984-5.983l5.984-5.983
	C196.301,417.577,196.301,411.119,192.318,407.136z"/>
<g>
</g>
<g>
</g>
<g>
</g>
<g>
</g>
<g>
</g>
<g>
</g>
<g>
</g>
<g>
</g>
<g>
</g>
<g>
</g>
<g>
</g>
<g>
</g>
<g>
</g>
<g>
</g>
<g>
</g>
</svg>
